PathFileType	4	(X/Y/Z)	C:/Users/beibeiliu/ov580/test_trc/User1\sequence.8_training_dense_left.trc
DataRate	CameraRate	NumFrames	NumMarkers	Units	OrigDataRate	OrigDataStartFrame	OrigNumFrames
120	120	18	19	mm	120	181	289
Frame#	Time	ThumbCMC			ThumbMCP			ThumbIP			ThumbTip			IndexMCP			IndexPIP			IndexTip			MiddleMCP			MiddlePIP			MiddleTip			RingMCP			RingPIP			RingTip			PinkyMCP			PinkyPIP			PinkyTip			BackHand1			BackHand2			BackHand3	
		X0	Y0	Z0	X1	Y1	Z1	X2	Y2	Z2	X3	Y3	Z3	X4	Y4	Z4	X5	Y5	Z5	X6	Y6	Z6	X7	Y7	Z7	X8	Y8	Z8	X9	Y9	Z9	X10	Y10	Z10	X11	Y11	Z11	X12	Y12	Z12	X13	Y13	Z13	X14	Y14	Z14	X15	Y15	Z15	X16	Y16	Z16	X17	Y17	Z17	X18	Y18	Z18	
180	1.5	-202.971	91.5419	-5.69414	-189.803	83.489	-26.1327	-175.739	89.446	-54.3647	-162.019	90.7178	-66.6121	-230.166	66.1576	-80.5786	-225.94	34.5629	-66.3812	-215.616	50.281	-36.5235	-248.685	55.8251	-78.9333	-237.639	28.7856	-59.4668	-230.924	48.8466	-26.4154	-269.503	46.3699	-63.7849	-251.855	28.4031	-45.7137	-245.753	52.3209	-17.9736	-282.519	48.1941	-49.0986	-264.538	34.0671	-32.8434	-255.05	58.2757	-13.5517	-270.118	102.183	-28.4794	-267.871	110.581	5.09492	-237.911	110.007	-14.6788	
181	1.50833	-203.033	82.3828	-4.10794	-185.44	74.8561	-27.4017	-172.967	76.3959	-47.4797	-157.846	76.8327	-61.0191	-226.328	56.7364	-81.8271	-228.856	29.8702	-68.5882	-215.313	45.3371	-35.5106	-250.973	54.8865	-77.4735	-241.68	25.9219	-62.2269	-234.425	45.9654	-24.3074	-272.237	51.1145	-62.751	-255.695	26.6064	-40.785	-248.005	46.9218	-18.5951	-289.536	51.941	-47.5563	-266.696	35.1454	-33.2648	-256.94	57.864	-12.6	-266.294	101.694	-27.6416	-263.171	107.412	9.76328	-234.028	106.364	-17.5693	
182	1.51667	-201.26	74.2964	1.61047	-185.172	63.9646	-23.5112	-170.116	63.7691	-46.1893	-155.958	60.4841	-55.1897	-224.467	55.5081	-79.3689	-230.172	25.0709	-68.0508	-218.496	39.5951	-33.6627	-248.708	52.8893	-76.8928	-245.608	22.6311	-54.9558	-237.171	39.9229	-24.7022	-266.175	48.4753	-64.194	-259.106	26.239	-41.0234	-250.36	49.2037	-15.1792	-287.083	52.7972	-49.4699	-275.295	32.6199	-31.8732	-259.05	57.3761	-12.2018	-263.517	100.892	-26.1443	-256.608	108.086	10.2987	-226.77	102.092	-13.2542	
183	1.525	-199.788	69.7974	2.58079	-182.894	55.9485	-19.3907	-168.134	54.3472	-40.4957	-156.289	49.9927	-56.3777	-224.665	50.827	-77.8645	-227.254	19.772	-62.1794	-217.191	33.6431	-32.9735	-248.652	54.1193	-74.4145	-246.331	21.1432	-53.3933	-234.745	41.2925	-22.1813	-266.837	50.9614	-62.664	-262.37	25.7348	-38.8157	-249.009	44.5147	-15.9203	-286.396	57.092	-49.081	-271.194	35.9285	-33.0293	-254.05	52.7182	-12.6171	-254.313	100.691	-23.6547	-254.389	108.593	10.6995	-221.882	99.1296	-9.35547	
184	1.53333	-194.289	67.138	2.46072	-179.98	52.1261	-15.9033	-167.1	49.2732	-37.6627	-152.903	43.7977	-47.5834	-219.173	50.1168	-74.9403	-226.258	20.8693	-63.8242	-218.631	33.5068	-30.9375	-245.066	48.3621	-73.3817	-241.76	20.2072	-56.7689	-230.896	37.3893	-21.7583	-264.596	47.764	-62.3679	-257.751	25.2694	-40.4915	-246.504	45.9273	-13.3044	-281.114	54.8512	-49.6566	-267.388	34.939	-32.6089	-254.665	53.127	-10.1411	-251.468	100.682	-24.4095	-248.129	104.437	12.2262	-216.719	96.8706	-10.5091	
185	1.54167	-190.93	63.8597	6.72975	-176.664	50.0258	-13.8709	-160.58	46.9581	-35.3111	-147.369	40.8198	-47.0756	-213.521	47.0134	-74.0311	-223.083	20.6075	-61.8112	-214.831	33.2776	-29.7451	-234.872	49.6926	-73.8835	-239.817	21.8334	-54.8722	-229.128	38.1114	-21.352	-257.053	52.8188	-61.4531	-252.98	24.6968	-43.2193	-242.237	44.0286	-14.8996	-273.313	59.9384	-49.9087	-265.547	35.1492	-30.1269	-250.21	53.1064	-11.8623	-245.129	100.342	-23.018	-241.95	103.501	10.5097	-210.723	94.7397	-8.15766	
186	1.55	-184.88	63.3195	9.96945	-172.405	47.8243	-10.7517	-154.844	42.1993	-29.0178	-143.21	35.9914	-39.0086	-207.614	51.2796	-70.1485	-217.827	19.7498	-57.5048	-210.727	32.1313	-28.7662	-233.011	54.6884	-70.4978	-233.764	21.4031	-52.6958	-225.349	38.4959	-19.3955	-250.894	49.4623	-61.8838	-251.046	25.7861	-39.0552	-240.966	47.2074	-12.3221	-273.316	56.4809	-48.7991	-260.999	35.8757	-33.3789	-243.947	56.2009	-11.8548	-246.148	100.61	-19.2995	-240.091	105.53	13.1719	-206.327	94.0915	-2.1867	
187	1.55833	-187.087	63.4386	11.7146	-172.588	47.2372	-7.41032	-152.44	40.335	-26.7815	-137.363	34.3954	-36.0332	-203.945	49.7001	-70.5921	-212.771	21.2392	-62.1894	-204.822	35.0722	-25.8561	-224.947	51.709	-71.592	-232.213	22.8882	-53.5527	-222.752	38.3688	-20.1412	-245.428	51.0294	-62.5509	-244.141	26.6945	-41.1189	-237.396	43.4295	-13.9228	-269.15	57.6921	-49.3227	-259.422	35.4962	-31.1687	-243.6	55.6874	-9.79146	-237.076	98.777	-22.1605	-240.283	103.954	14.3075	-207.369	96.0973	-3.96839	
188	1.56667	-181.891	63.5907	13.1785	-165.816	46.5971	-6.13903	-148.41	40.4538	-25.3355	-134.215	32.5796	-37.1713	-197.178	52.2571	-69.1716	-207.128	22.5761	-61.274	-202.647	36.1826	-25.4944	-223.641	58.0462	-69.402	-225.629	24.5618	-54.6843	-215.183	43.0345	-17.6164	-244.588	53.8	-61.6369	-243.259	28.0168	-39.449	-232.265	47.8384	-13.2944	-262.052	57.227	-50.1058	-256.81	36.5332	-32.5824	-243.087	54.3587	-8.46229	-238.079	103.043	-21.5466	-236.213	104.735	19.2742	-203.078	97.086	-3.14128	
189	1.575	-179.612	65.401	13.3385	-167.438	49.353	-7.24372	-146.684	40.9066	-22.8095	-129.547	33.311	-34.9338	-189.891	57.4086	-67.0979	-201.649	25.0778	-60.2337	-197.252	35.3958	-26.0796	-217.222	59.5916	-69.7813	-223.14	27.2645	-55.0423	-215.687	45.1751	-18.2459	-236.749	54.5419	-62.2904	-239.006	29.4783	-37.1309	-228.29	50.5453	-11.5942	-259.534	58.7194	-50.6175	-249.727	39.5227	-33.8194	-237.006	58.5211	-9.12535	-232.196	103.93	-15.837	-234.932	106.79	20.5104	-199.514	96.2908	0.998864	
190	1.58333	-175.38	68.635	14.0448	-160.849	52.0493	-7.67827	-143.669	45.7465	-26.1747	-128.244	38.7535	-35.3556	-188.972	62.4349	-66.2019	-200.739	31.9856	-61.1915	-193.606	41.474	-25.3424	-214.745	61.2212	-70.14	-214.898	28.5215	-53.3054	-212.858	46.4205	-18.8223	-239.167	58.9364	-60.1151	-232.098	31.5081	-40.6713	-228.494	51.6946	-11.6775	-255.907	63.6931	-48.9162	-245.187	39.9781	-32.3405	-232.68	61.3582	-7.91612	-236.351	103.329	-20.2102	-237.137	106.32	16.2702	-198.737	99.6591	4.49931	
191	1.59167	-176.892	74.4488	12.0412	-160.463	57.7885	-3.80318	-144.301	52.1384	-23.0727	-128.909	45.7881	-38.8999	-186.784	65.5356	-66.9902	-193.716	33.7347	-60.2567	-192.537	45.1021	-26.2476	-211.769	64.569	-70.1615	-214.119	32.5691	-56.1447	-208.223	50.3861	-18.1215	-230.021	57.8895	-62.2017	-229.126	33.4654	-38.991	-225.427	53.7229	-12.7127	-250.191	61.9276	-49.2142	-241.665	39.8406	-32.8811	-230.791	64.3325	-10.5177	-235.974	106.022	-19.1308	-237.072	107.83	15.9629	-203.533	103.597	3.99692	
192	1.6	-172.312	77.0211	15.4105	-156.073	62.5508	-5.29382	-142.028	58.0997	-26.209	-122	49.7866	-38.0613	-182.861	68.8434	-68.6759	-191.878	40.2589	-61.7882	-184.779	49.3139	-25.6505	-209.009	70.2096	-69.3852	-210.37	36.9679	-56.157	-206.533	50.9339	-19.3668	-230.544	60.4926	-61.338	-224.751	35.1379	-39.641	-217.983	57.1704	-12.8908	-252.254	62.8224	-49.3801	-239.904	40.3743	-32.7086	-229.915	62.8844	-7.14378	-235.046	106.405	-16.0094	-234.241	107.399	21.1545	-200.979	106.312	4.07973	
193	1.60833	-171.203	80.4969	17.868	-157.927	64.2009	-5.07441	-139.515	60.4758	-27.3614	-120.746	53.1513	-34.8831	-179.311	72.1203	-68.6995	-184.555	43.0578	-60.5318	-186.396	54.0464	-25.0828	-204.271	69.3064	-70.8881	-205.963	40.0024	-57.1608	-204.711	54.8887	-19.814	-227.684	62.4415	-62.4456	-220.432	38.7519	-40.7646	-218.866	55.7904	-14.1673	-245.139	68.2662	-50.885	-236.405	43.1066	-33.7182	-228.044	67.9302	-7.23627	-234.261	108.738	-19.9725	-238.139	111.856	18.9984	-198.035	109.498	3.58078	
194	1.61667	-172	84.0858	13.719	-153.197	68.6665	-4.64235	-139.34	62.9447	-23.5473	-121.576	58.3353	-38.3202	-177.683	77.3419	-67.1985	-181.126	45.8656	-57.7468	-181.291	54.2828	-26.5284	-199.946	74.6657	-70.2025	-200.316	42.138	-54.7156	-202.303	56.5449	-20.2809	-224.003	69.0478	-62.4928	-218.524	41.1254	-44.0006	-214.714	61.8254	-12.9263	-243.58	69.1264	-51.9217	-230.626	47.5664	-33.2719	-224.294	69.2861	-9.81707	-233.137	111.107	-17.3117	-235.641	110.401	18.9933	-200.082	112.68	5.92393	
195	1.625	-171.033	87.3993	17.6356	-153.524	73.273	-2.60079	-134.377	70.8568	-24.335	-118.431	63.2609	-33.8019	-173.057	83.7209	-65.4526	-177.77	49.0617	-57.4739	-178.942	59.9085	-25.1722	-197.748	76.5181	-71.1297	-197.869	45.31	-58.4214	-195.863	61.3717	-18.402	-222.296	69.6449	-62.2725	-215.154	42.4035	-43.7032	-213.389	59.6819	-14.1395	-238.608	67.2633	-52.3412	-226.376	47.9981	-37.0863	-220.891	71.327	-11.6609	-231.246	113.416	-19.0902	-234.052	112.89	15.1995	-199.278	116.971	0.941394	
196	1.63333	-172.196	94.0238	15.7409	-151.321	80.7609	-1.06917	-131.539	77.5846	-20.9368	-111.401	74.7249	-36.5289	-169.333	86.9341	-65.4589	-172.557	55.2001	-60.1313	-176.909	64.3813	-24.1553	-195.432	80.4858	-69.7509	-191.269	46.8802	-53.5528	-188.99	63.9907	-16.6695	-215.868	67.8889	-63.4909	-202.892	44.4085	-40.9393	-205.968	62.7498	-13.6476	-233.919	66.2224	-52.1857	-220.443	47.175	-34.3497	-219.39	69.5447	-9.55424	-233.906	111.538	-20.3122	-238.465	113.648	15.7559	-198.723	119.055	4.53251	
197	1.64167	-168.015	103.141	16.2514	-148.716	89.9409	-0.309723	-130.256	89.4263	-23.8519	-109.677	86.9688	-34.4875	-166.214	88.9964	-66.1501	-165.4	57.7795	-55.1494	-169.429	67.691	-23.8303	-193.571	79.4206	-69.7952	-179.291	50.865	-55.5624	-184.314	66.65	-15.8096	-209.791	66.9355	-62.8252	-195.82	45.1692	-41.6898	-203.915	62.2982	-13.738	-228.399	61.5327	-51.7752	-213.734	45.7701	-32.2002	-212.334	66.8335	-8.11683	-232.585	108.652	-21.9401	-239.066	108.697	17.0207	-203.733	120.627	-0.568784	
